# xmcd
#
# Track frame offsets:
#	150
#	24542
#	36633
#	54730
#	72827
#	86405
#	109251
#	120669
#	133442
#	148830
#	163963
#	183022
#	196676
#	210338
#	234004
#
# Disc length: 3471 seconds
#
# Revision: 0
# Processed by: cddbd v1.4PL0 Copyright (c) Steve Scherf et al.
# Submitted via: audiograbber 1.82.02
#
DISCID=d60d8d0f
DTITLE=Failed Saints - Empty Chair
DYEAR=1900
DGENRE=
TTITLE0=There Is A World
TTITLE1=The Wrong Stones
TTITLE2=Theodore
TTITLE3=Who Do You Think You Are
TTITLE4=Dark Desire
TTITLE5=Silver Spoons
TTITLE6=Topsy Turvy
TTITLE7=Rejects
TTITLE8=Psychology Bribed the World
TTITLE9=Building A Boat
TTITLE10=In the Majesty of Love
TTITLE11=
TTITLE12=Art Is Idiocy
TTITLE13=Paydirt
TTITLE14=Love Song From A Zombie
EXTD=
EXTT0=
EXTT1=
EXTT2=
EXTT3=
EXTT4=
EXTT5=
EXTT6=
EXTT7=
EXTT8=
EXTT9=
EXTT10=
EXTT11=
EXTT12=
EXTT13=
EXTT14=
PLAYORDER=
